0
SECTION
2
HEADER
9
$INSUNITS
70
4
9
$ACADVER
1
AC1014
9
$HANDSEED
5
FFFF
0
ENDSEC
0
SECTION
2
TABLES
0
TABLE
2
VPORT
5
8
100
AcDbSymbolTable
0
ENDTAB
0
TABLE
2
LTYPE
5
5
100
AcDbSymbolTable
0
LTYPE
5
14
100
AcDbSymbolTableRecord
100
AcDbLinetypeTableRecord
2
BYBLOCK
70
0
0
LTYPE
5
15
100
AcDbSymbolTableRecord
100
AcDbLinetypeTableRecord
2
BYLAYER
70
0
0
ENDTAB
0
TABLE
2
LAYER
5
2
100
AcDbSymbolTable
70
2
0
LAYER
5
50
100
AcDbSymbolTableRecord
100
AcDbLayerTableRecord
2
0
70
0
6
CONTINUOUS
0
ENDTAB
0
TABLE
2
STYLE
5
3
100
AcDbSymbolTable
70
1
0
STYLE
5
11
100
AcDbSymbolTableRecord
100
AcDbTextStyleTableRecord
2
STANDARD
70
0
0
ENDTAB
0
TABLE
2
VIEW
5
6
100
AcDbSymbolTable
70
0
0
ENDTAB
0
TABLE
2
UCS
5
7
100
AcDbSymbolTable
70
0
0
ENDTAB
0
TABLE
2
APPID
5
9
100
AcDbSymbolTable
70
2
0
APPID
5
12
100
AcDbSymbolTableRecord
100
AcDbRegAppTableRecord
2
ACAD
70
0
0
ENDTAB
0
TABLE
2
DIMSTYLE
5
A
100
AcDbSymbolTable
70
1
0
ENDTAB
0
TABLE
2
BLOCK_RECORD
5
1
100
AcDbSymbolTable
70
1
0
BLOCK_RECORD
5
1F
100
AcDbSymbolTableRecord
100
AcDbBlockTableRecord
2
*MODEL_SPACE
0
BLOCK_RECORD
5
1B
100
AcDbSymbolTableRecord
100
AcDbBlockTableRecord
2
*PAPER_SPACE
0
ENDTAB
0
ENDSEC
0
SECTION
2
BLOCKS
0
BLOCK
5
20
100
AcDbEntity
100
AcDbBlockBegin
2
*MODEL_SPACE
0
ENDBLK
5
21
100
AcDbEntity
100
AcDbBlockEnd
0
BLOCK
5
1C
100
AcDbEntity
100
AcDbBlockBegin
2
*PAPER_SPACE
0
ENDBLK
5
1D
100
AcDbEntity
100
AcDbBlockEnd
0
ENDSEC
0
SECTION
2
ENTITIES
0
LWPOLYLINE
5
100
100
AcDbEntity
8
0
100
AcDbPolyline
90
4
70
1
43
0.0
10
150.48149999999998
20
3.0689999999999928
10
134.98149999999998
20
3.0689999999999928
10
134.98149999999998
20
15.868999999999986
10
150.48149999999998
20
15.868999999999986
0
LWPOLYLINE
5
101
100
AcDbEntity
8
0
100
AcDbPolyline
90
4
70
1
43
0.0
10
169.53149999999999
20
79.269000000000005
10
154.03149999999999
20
79.269000000000005
10
154.03149999999999
20
92.068999999999988
10
169.53149999999999
20
92.068999999999988
0
LWPOLYLINE
5
102
100
AcDbEntity
8
0
100
AcDbPolyline
90
4
70
1
43
0.0
10
179.05650000000003
20
73.019000000000005
10
179.05650000000003
20
60.219000000000008
10
163.5565
20
60.219000000000008
10
163.5565
20
73.019000000000005
0
LWPOLYLINE
5
103
100
AcDbEntity
8
0
100
AcDbPolyline
90
4
70
1
43
0.0
10
130.21899999999999
20
53.969000000000008
10
145.71899999999999
20
53.969000000000008
10
145.71899999999999
20
41.168999999999997
10
130.21899999999999
20
41.168999999999997
0
LWPOLYLINE
5
104
100
AcDbEntity
8
0
100
AcDbPolyline
90
4
70
1
43
0.0
10
160.00650000000002
20
60.219000000000008
10
144.50649999999999
20
60.219000000000008
10
144.50649999999999
20
73.019000000000005
10
160.00650000000002
20
73.019000000000005
0
LWPOLYLINE
5
105
100
AcDbEntity
8
0
100
AcDbPolyline
90
4
70
1
43
0.0
10
192.13149999999999
20
92.068999999999988
10
207.63149999999999
20
92.068999999999988
10
207.63149999999999
20
79.269000000000005
10
192.13149999999999
20
79.269000000000005
0
LWPOLYLINE
5
106
100
AcDbEntity
8
0
100
AcDbPolyline
90
4
70
1
43
0.0
10
150.48149999999998
20
79.269000000000005
10
134.98149999999998
20
79.269000000000005
10
134.98149999999998
20
92.068999999999988
10
150.48149999999998
20
92.068999999999988
0
LWPOLYLINE
5
107
100
AcDbEntity
8
0
100
AcDbPolyline
90
4
70
1
43
0.0
10
211.1815
20
92.068999999999988
10
226.6815
20
92.068999999999988
10
226.6815
20
79.269000000000005
10
211.1815
20
79.269000000000005
0
LWPOLYLINE
5
108
100
AcDbEntity
8
0
100
AcDbPolyline
90
4
70
1
43
0.0
10
139.744
20
34.918999999999997
10
155.244
20
34.918999999999997
10
155.244
20
22.118999999999986
10
139.744
20
22.118999999999986
0
LWPOLYLINE
5
109
100
AcDbEntity
8
0
100
AcDbPolyline
90
4
70
1
43
0.0
10
182.60649999999998
20
60.219000000000008
10
182.60649999999998
20
73.019000000000005
10
198.10649999999998
20
73.019000000000005
10
198.10649999999998
20
60.219000000000008
0
LWPOLYLINE
5
110
100
AcDbEntity
8
0
100
AcDbPolyline
90
4
70
1
43
0.0
10
109.58150000000001
20
10.669000000000008
10
109.58150000000001
20
8.2689999999999877
10
111.9815
20
8.2689999999999877
10
111.9815
20
10.669000000000008
0
LWPOLYLINE
5
111
100
AcDbEntity
8
0
100
AcDbPolyline
90
4
70
1
43
0.0
10
181.9315
20
4.6189999999999864
10
179.53149999999999
20
4.6189999999999864
10
179.53149999999999
20
2.2190000000000021
10
181.9315
20
2.2190000000000021
0
LWPOLYLINE
5
112
100
AcDbEntity
8
0
100
AcDbPolyline
90
4
70
1
43
0.0
10
45.706499999999998
20
60.219000000000008
10
30.206499999999995
20
60.219000000000008
10
30.206499999999995
20
73.019000000000005
10
45.706499999999998
20
73.019000000000005
0
LWPOLYLINE
5
113
100
AcDbEntity
8
0
100
AcDbPolyline
90
4
70
1
43
0.0
10
112.38149999999999
20
79.269000000000005
10
96.881500000000003
20
79.269000000000005
10
96.881500000000003
20
92.068999999999988
10
112.38149999999999
20
92.068999999999988
0
LWPOLYLINE
5
114
100
AcDbEntity
8
0
100
AcDbPolyline
90
16
70
1
43
0.0
10
285.23149999999998
20
35.593664234932866
10
285.23149999999998
20
2.1689999999999947
42
-0.41421356237309503
10
282.73149999999998
20
-0.33100000000000573
10
2.7314999999999943
20
-0.33100000000000573
42
-0.41421356237309503
10
0.23149999999999449
20
2.1689999999999943
10
0.23149999999999449
20
35.500000528991222
10
3.342368327794925
20
35.500000528991222
42
0.941800215717573
10
3.3423980596172429
20
40.501007387567462
10
0.2314999999998141
20
40.501007387567462
10
0.23149999999999449
20
92.168999999999983
42
-0.41421356237309503
10
2.7315000000000111
20
94.668999999999983
10
282.73149999999998
20
94.668999999999983
42
-0.41421356237309503
10
285.23149999999998
20
92.168999999999983
10
285.23149999999998
20
40.594664234932822
10
282.72943611212213
20
40.594664234932822
42
0.94177865333933586
10
282.72943611212213
20
35.593664234932866
0
LWPOLYLINE
5
115
100
AcDbEntity
8
0
100
AcDbPolyline
90
4
70
1
43
0.0
10
174.29399999999998
20
34.918999999999997
10
174.29399999999998
20
22.118999999999986
10
158.79400000000001
20
22.118999999999986
10
158.79400000000001
20
34.918999999999997
0
LWPOLYLINE
5
116
100
AcDbEntity
8
0
100
AcDbPolyline
90
4
70
1
43
0.0
10
193.34400000000002
20
34.918999999999997
10
193.34400000000002
20
22.118999999999986
10
177.84400000000002
20
22.118999999999986
10
177.84400000000002
20
34.918999999999997
0
LWPOLYLINE
5
117
100
AcDbEntity
8
0
100
AcDbPolyline
90
4
70
1
43
0.0
10
13.537749999999997
20
22.118999999999986
10
13.537749999999997
20
34.918999999999997
10
29.037749999999996
20
34.918999999999997
10
29.037749999999996
20
22.118999999999986
0
LWPOLYLINE
5
118
100
AcDbEntity
8
0
100
AcDbPolyline
90
4
70
1
43
0.0
10
34.087749999999993
20
19.518999999999988
10
34.087749999999993
20
24.618999999999986
10
36.687749999999994
20
24.618999999999986
10
36.687749999999994
20
19.518999999999988
0
LWPOLYLINE
5
119
100
AcDbEntity
8
0
100
AcDbPolyline
90
4
70
1
43
0.0
10
125.45650000000002
20
73.019000000000005
10
140.95650000000001
20
73.019000000000005
10
140.95650000000001
20
60.219000000000008
10
125.45650000000002
20
60.219000000000008
0
LWPOLYLINE
5
120
100
AcDbEntity
8
0
100
AcDbPolyline
90
4
70
1
43
0.0
10
55.231500000000004
20
92.068999999999988
10
55.231500000000004
20
79.269000000000005
10
39.731499999999997
20
79.269000000000005
10
39.731499999999997
20
92.068999999999988
0
LWPOLYLINE
5
121
100
AcDbEntity
8
0
100
AcDbPolyline
90
4
70
1
43
0.0
10
34.968999999999994
20
53.969000000000008
10
50.469000000000001
20
53.969000000000008
10
50.469000000000001
20
41.168999999999997
10
34.968999999999994
20
41.168999999999997
0
LWPOLYLINE
5
122
100
AcDbEntity
8
0
100
AcDbPolyline
90
4
70
1
43
0.0
10
111.16900000000001
20
53.969000000000008
10
126.66899999999998
20
53.969000000000008
10
126.66899999999998
20
41.168999999999997
10
111.16900000000001
20
41.168999999999997
0
LWPOLYLINE
5
123
100
AcDbEntity
8
0
100
AcDbPolyline
90
4
70
1
43
0.0
10
226.6815
20
3.0689999999999928
10
211.1815
20
3.0689999999999928
10
211.1815
20
15.868999999999986
10
226.6815
20
15.868999999999986
0
LWPOLYLINE
5
124
100
AcDbEntity
8
0
100
AcDbPolyline
90
4
70
1
43
0.0
10
115.93150000000001
20
79.269000000000005
10
115.93150000000001
20
92.068999999999988
10
131.4315
20
92.068999999999988
10
131.4315
20
79.269000000000005
0
LWPOLYLINE
5
125
100
AcDbEntity
8
0
100
AcDbPolyline
90
4
70
1
43
0.0
10
262.98875000000004
20
19.518999999999988
10
262.98875000000004
20
24.618999999999986
10
260.38874999999996
20
24.618999999999986
10
260.38874999999996
20
19.518999999999988
0
LWPOLYLINE
5
126
100
AcDbEntity
8
0
100
AcDbPolyline
90
4
70
1
43
0.0
10
17.131499999999996
20
79.269000000000005
10
1.6314999999999946
20
79.269000000000005
10
1.6314999999999946
20
92.068999999999988
10
17.131499999999996
20
92.068999999999988
0
LWPOLYLINE
5
127
100
AcDbEntity
8
0
100
AcDbPolyline
90
4
70
1
43
0.0
10
121.90649999999999
20
73.019000000000005
10
121.90649999999999
20
60.219000000000008
10
106.40650000000001
20
60.219000000000008
10
106.40650000000001
20
73.019000000000005
0
LWPOLYLINE
5
128
100
AcDbEntity
8
0
100
AcDbPolyline
90
4
70
1
43
0.0
10
117.14399999999999
20
34.918999999999997
10
117.14399999999999
20
22.118999999999986
10
101.64400000000001
20
22.118999999999986
10
101.64400000000001
20
34.918999999999997
0
LWPOLYLINE
5
129
100
AcDbEntity
8
0
100
AcDbPolyline
90
4
70
1
43
0.0
10
231.44400000000002
20
34.918999999999997
10
231.44400000000002
20
22.118999999999986
10
215.94400000000002
20
22.118999999999986
10
215.94400000000002
20
34.918999999999997
0
LWPOLYLINE
5
130
100
AcDbEntity
8
0
100
AcDbPolyline
90
4
70
1
43
0.0
10
48.087699999999991
20
3.0689999999999928
10
32.587699999999991
20
3.0689999999999928
10
32.587699999999991
20
15.868999999999986
10
48.087699999999991
20
15.868999999999986
0
LWPOLYLINE
5
131
100
AcDbEntity
8
0
100
AcDbPolyline
90
4
70
1
43
0.0
10
283.83150000000001
20
79.269000000000005
10
268.33150000000001
20
79.269000000000005
10
268.33150000000001
20
92.068999999999988
10
283.83150000000001
20
92.068999999999988
0
LWPOLYLINE
5
132
100
AcDbEntity
8
0
100
AcDbPolyline
90
4
70
1
43
0.0
10
5.8877499999999934
20
19.518999999999988
10
8.4877499999999966
20
19.518999999999988
10
8.4877499999999966
20
24.618999999999986
10
5.8877499999999934
20
24.618999999999986
0
LWPOLYLINE
5
133
100
AcDbEntity
8
0
100
AcDbPolyline
90
4
70
1
43
0.0
10
63.543999999999997
20
22.118999999999986
10
63.543999999999997
20
34.918999999999997
10
79.044000000000011
20
34.918999999999997
10
79.044000000000011
20
22.118999999999986
0
LWPOLYLINE
5
134
100
AcDbEntity
8
0
100
AcDbPolyline
90
4
70
1
43
0.0
10
44.494
20
34.918999999999997
10
59.994000000000007
20
34.918999999999997
10
59.994000000000007
20
22.118999999999986
10
44.494
20
22.118999999999986
0
LWPOLYLINE
5
135
100
AcDbEntity
8
0
100
AcDbPolyline
90
4
70
1
43
0.0
10
248.77525000000003
20
38.568999999999988
10
251.37524999999999
20
38.568999999999988
10
251.37524999999999
20
43.668999999999997
10
248.77525000000003
20
43.668999999999997
0
LWPOLYLINE
5
136
100
AcDbEntity
8
0
100
AcDbPolyline
90
4
70
1
43
0.0
10
239.11275000000003
20
24.618999999999986
10
236.51274999999998
20
24.618999999999986
10
236.51274999999998
20
19.518999999999988
10
239.11275000000003
20
19.518999999999988
0
LWPOLYLINE
5
137
100
AcDbEntity
8
0
100
AcDbPolyline
90
4
70
1
43
0.0
10
164.76900000000001
20
41.168999999999997
10
149.26900000000001
20
41.168999999999997
10
149.26900000000001
20
53.969000000000008
10
164.76900000000001
20
53.969000000000008
0
LWPOLYLINE
5
138
100
AcDbEntity
8
0
100
AcDbPolyline
90
4
70
1
43
0.0
10
196.89400000000003
20
22.118999999999986
10
196.89400000000003
20
34.918999999999997
10
212.39400000000003
20
34.918999999999997
10
212.39400000000003
20
22.118999999999986
0
LWPOLYLINE
5
139
100
AcDbEntity
8
0
100
AcDbPolyline
90
4
70
1
43
0.0
10
21.893999999999995
20
15.868999999999986
10
21.893999999999995
20
3.0689999999999928
10
6.3939999999999948
20
3.0689999999999928
10
6.3939999999999948
20
15.868999999999986
0
LWPOLYLINE
5
140
100
AcDbEntity
8
0
100
AcDbPolyline
90
4
70
1
43
0.0
10
120.694
20
34.918999999999997
10
136.19399999999999
20
34.918999999999997
10
136.19399999999999
20
22.118999999999986
10
120.694
20
22.118999999999986
0
LWPOLYLINE
5
141
100
AcDbEntity
8
0
100
AcDbPolyline
90
4
70
1
43
0.0
10
58.781499999999994
20
79.269000000000005
10
58.781499999999994
20
92.068999999999988
10
74.281499999999994
20
92.068999999999988
10
74.281499999999994
20
79.269000000000005
0
LWPOLYLINE
5
142
100
AcDbEntity
8
0
100
AcDbPolyline
90
4
70
1
43
0.0
10
179.53149999999999
20
16.718999999999994
10
179.53149999999999
20
14.318999999999992
10
181.9315
20
14.318999999999992
10
181.9315
20
16.718999999999994
0
LWPOLYLINE
5
143
100
AcDbEntity
8
0
100
AcDbPolyline
90
4
70
1
43
0.0
10
24.275249999999993
20
41.168999999999997
10
8.7752499999999944
20
41.168999999999997
10
8.7752499999999944
20
53.969000000000008
10
24.275249999999993
20
53.969000000000008
0
LWPOLYLINE
5
144
100
AcDbEntity
8
0
100
AcDbPolyline
90
4
70
1
43
0.0
10
242.136
20
22.118999999999986
10
242.136
20
34.918999999999997
10
257.63600000000002
20
34.918999999999997
10
257.63600000000002
20
22.118999999999986
0
CIRCLE
5
145
100
AcDbEntity
8
0
100
AcDbCircle
10
104.73150000000001
20
9.4689999999999976
30
0
40
3.1499999999999999
210
0
220
0
230
1
0
LWPOLYLINE
5
146
100
AcDbEntity
8
0
100
AcDbPolyline
90
4
70
1
43
0.0
10
255.25650000000002
20
73.019000000000005
10
255.25650000000002
20
60.219000000000008
10
239.75650000000002
20
60.219000000000008
10
239.75650000000002
20
73.019000000000005
0
LWPOLYLINE
5
147
100
AcDbEntity
8
0
100
AcDbPolyline
90
4
70
1
43
0.0
10
279.06900000000002
20
3.0689999999999928
10
263.56900000000002
20
3.0689999999999928
10
263.56900000000002
20
15.868999999999986
10
279.06900000000002
20
15.868999999999986
0
LWPOLYLINE
5
148
100
AcDbEntity
8
0
100
AcDbPolyline
90
4
70
1
43
0.0
10
279.06900000000002
20
60.219000000000008
10
263.56900000000002
20
60.219000000000008
10
263.56900000000002
20
73.019000000000005
10
279.06900000000002
20
73.019000000000005
0
LWPOLYLINE
5
149
100
AcDbEntity
8
0
100
AcDbPolyline
90
4
70
1
43
0.0
10
264.78149999999999
20
79.269000000000005
10
264.78149999999999
20
92.068999999999988
10
249.28150000000002
20
92.068999999999988
10
249.28150000000002
20
79.269000000000005
0
LWPOLYLINE
5
150
100
AcDbEntity
8
0
100
AcDbPolyline
90
4
70
1
43
0.0
10
230.23150000000001
20
79.269000000000005
10
230.23150000000001
20
92.068999999999988
10
245.73149999999998
20
92.068999999999988
10
245.73149999999998
20
79.269000000000005
0
LWPOLYLINE
5
151
100
AcDbEntity
8
0
100
AcDbPolyline
90
4
70
1
43
0.0
10
21.893999999999995
20
60.219000000000008
10
6.3939999999999948
20
60.219000000000008
10
6.3939999999999948
20
73.019000000000005
10
21.893999999999995
20
73.019000000000005
0
LWPOLYLINE
5
152
100
AcDbEntity
8
0
100
AcDbPolyline
90
4
70
1
43
0.0
10
58.781499999999994
20
3.0689999999999928
10
58.781499999999994
20
15.868999999999986
10
74.281499999999994
20
15.868999999999986
10
74.281499999999994
20
3.0689999999999928
0
LWPOLYLINE
5
153
100
AcDbEntity
8
0
100
AcDbPolyline
90
4
70
1
43
0.0
10
186.88150000000002
20
5.5689999999999928
10
189.48149999999998
20
5.5689999999999928
10
189.48149999999998
20
0.46899999999999498
10
186.88150000000002
20
0.46899999999999498
0
LWPOLYLINE
5
154
100
AcDbEntity
8
0
100
AcDbPolyline
90
4
70
1
43
0.0
10
20.681499999999993
20
79.269000000000005
10
20.681499999999993
20
92.068999999999988
10
36.181499999999993
20
92.068999999999988
10
36.181499999999993
20
79.269000000000005
0
LWPOLYLINE
5
155
100
AcDbEntity
8
0
100
AcDbPolyline
90
4
70
1
43
0.0
10
107.619
20
41.168999999999997
10
92.119
20
41.168999999999997
10
92.119
20
53.969000000000008
10
107.619
20
53.969000000000008
0
LWPOLYLINE
5
156
100
AcDbEntity
8
0
100
AcDbPolyline
90
4
70
1
43
0.0
10
189.48149999999998
20
18.469000000000001
10
186.88150000000002
20
18.469000000000001
10
186.88150000000002
20
13.368999999999986
10
189.48149999999998
20
13.368999999999986
0
LWPOLYLINE
5
157
100
AcDbEntity
8
0
100
AcDbPolyline
90
4
70
1
43
0.0
10
236.20650000000001
20
73.019000000000005
10
236.20650000000001
20
60.219000000000008
10
220.70650000000001
20
60.219000000000008
10
220.70650000000001
20
73.019000000000005
0
CIRCLE
5
158
100
AcDbEntity
8
0
100
AcDbCircle
10
190.53150000000002
20
9.4689999999999976
30
0
40
3.1499999999999999
210
0
220
0
230
1
0
LWPOLYLINE
5
159
100
AcDbEntity
8
0
100
AcDbPolyline
90
4
70
1
43
0.0
10
49.256500000000003
20
60.219000000000008
10
49.256500000000003
20
73.019000000000005
10
64.756499999999988
20
73.019000000000005
10
64.756499999999988
20
60.219000000000008
0
LWPOLYLINE
5
160
100
AcDbEntity
8
0
100
AcDbPolyline
90
4
70
1
43
0.0
10
168.31900000000002
20
53.969000000000008
10
183.81899999999999
20
53.969000000000008
10
183.81899999999999
20
41.168999999999997
10
168.31900000000002
20
41.168999999999997
0
LWPOLYLINE
5
161
100
AcDbEntity
8
0
100
AcDbPolyline
90
4
70
1
43
0.0
10
173.08150000000001
20
79.269000000000005
10
173.08150000000001
20
92.068999999999988
10
188.58150000000001
20
92.068999999999988
10
188.58150000000001
20
79.269000000000005
0
LWPOLYLINE
5
162
100
AcDbEntity
8
0
100
AcDbPolyline
90
4
70
1
43
0.0
10
240.96900000000002
20
41.168999999999997
10
225.46899999999999
20
41.168999999999997
10
225.46899999999999
20
53.969000000000008
10
240.96900000000002
20
53.969000000000008
0
LWPOLYLINE
5
163
100
AcDbEntity
8
0
100
AcDbPolyline
90
4
70
1
43
0.0
10
202.86900000000003
20
53.969000000000008
10
202.86900000000003
20
41.168999999999997
10
187.36900000000003
20
41.168999999999997
10
187.36900000000003
20
53.969000000000008
0
LWPOLYLINE
5
164
100
AcDbEntity
8
0
100
AcDbPolyline
90
4
70
1
43
0.0
10
206.41899999999998
20
53.969000000000008
10
221.91900000000001
20
53.969000000000008
10
221.91900000000001
20
41.168999999999997
10
206.41899999999998
20
41.168999999999997
0
LWPOLYLINE
5
165
100
AcDbEntity
8
0
100
AcDbPolyline
90
4
70
1
43
0.0
10
69.518999999999991
20
41.168999999999997
10
54.018999999999991
20
41.168999999999997
10
54.018999999999991
20
53.969000000000008
10
69.518999999999991
20
53.969000000000008
0
LWPOLYLINE
5
166
100
AcDbEntity
8
0
100
AcDbPolyline
90
4
70
1
43
0.0
10
73.068999999999988
20
41.168999999999997
10
73.068999999999988
20
53.969000000000008
10
88.568999999999988
20
53.969000000000008
10
88.568999999999988
20
41.168999999999997
0
LWPOLYLINE
5
167
100
AcDbEntity
8
0
100
AcDbPolyline
90
4
70
1
43
0.0
10
271.92525000000001
20
41.168999999999997
10
256.42525000000001
20
41.168999999999997
10
256.42525000000001
20
53.969000000000008
10
271.92525000000001
20
53.969000000000008
0
LWPOLYLINE
5
168
100
AcDbEntity
8
0
100
AcDbPolyline
90
4
70
1
43
0.0
10
201.65649999999999
20
60.219000000000008
10
201.65649999999999
20
73.019000000000005
10
217.15649999999999
20
73.019000000000005
10
217.15649999999999
20
60.219000000000008
0
CIRCLE
5
169
100
AcDbEntity
8
0
100
AcDbCircle
10
259.61900000000003
20
66.619
30
0
40
3.1499999999999999
210
0
220
0
230
1
0
CIRCLE
5
170
100
AcDbEntity
8
0
100
AcDbCircle
10
25.843999999999994
20
66.619
30
0
40
3.1499999999999999
210
0
220
0
230
1
0
LWPOLYLINE
5
171
100
AcDbEntity
8
0
100
AcDbPolyline
90
4
70
1
43
0.0
10
98.581500000000005
20
13.368999999999986
10
95.981500000000011
20
13.368999999999986
10
95.981500000000011
20
18.469000000000001
10
98.581500000000005
20
18.469000000000001
0
LWPOLYLINE
5
172
100
AcDbEntity
8
0
100
AcDbPolyline
90
4
70
1
43
0.0
10
279.57524999999998
20
38.568999999999988
10
276.97525000000002
20
38.568999999999988
10
276.97525000000002
20
43.668999999999997
10
279.57524999999998
20
43.668999999999997
0
LWPOLYLINE
5
173
100
AcDbEntity
8
0
100
AcDbPolyline
90
4
70
1
43
0.0
10
93.331500000000005
20
79.269000000000005
10
77.831499999999991
20
79.269000000000005
10
77.831499999999991
20
92.068999999999988
10
93.331500000000005
20
92.068999999999988
0
LWPOLYLINE
5
174
100
AcDbEntity
8
0
100
AcDbPolyline
90
4
70
1
43
0.0
10
102.85650000000001
20
73.019000000000005
10
102.85650000000001
20
60.219000000000008
10
87.356499999999997
20
60.219000000000008
10
87.356499999999997
20
73.019000000000005
0
LWPOLYLINE
5
175
100
AcDbEntity
8
0
100
AcDbPolyline
90
4
70
1
43
0.0
10
252.87525000000002
20
15.868999999999986
10
252.87525000000002
20
3.0689999999999928
10
237.37525000000002
20
3.0689999999999928
10
237.37525000000002
20
15.868999999999986
0
LWPOLYLINE
5
176
100
AcDbEntity
8
0
100
AcDbPolyline
90
4
70
1
43
0.0
10
95.981500000000011
20
5.5689999999999928
10
95.981500000000011
20
0.46899999999999498
10
98.581500000000005
20
0.46899999999999498
10
98.581500000000005
20
5.5689999999999928
0
LWPOLYLINE
5
177
100
AcDbEntity
8
0
100
AcDbPolyline
90
4
70
1
43
0.0
10
99.881499999999988
20
10.669000000000008
10
97.481500000000011
20
10.669000000000008
10
97.481500000000011
20
8.2689999999999877
10
99.881499999999988
20
8.2689999999999877
0
LWPOLYLINE
5
178
100
AcDbEntity
8
0
100
AcDbPolyline
90
4
70
1
43
0.0
10
268.32999999999998
20
34.918999999999997
10
283.82999999999998
20
34.918999999999997
10
283.82999999999998
20
22.118999999999986
10
268.32999999999998
20
22.118999999999986
0
LWPOLYLINE
5
179
100
AcDbEntity
8
0
100
AcDbPolyline
90
4
70
1
43
0.0
10
83.806500000000014
20
60.219000000000008
10
68.3065
20
60.219000000000008
10
68.3065
20
73.019000000000005
10
83.806500000000014
20
73.019000000000005
0
LWPOLYLINE
5
180
100
AcDbEntity
8
0
100
AcDbPolyline
90
4
70
1
43
0.0
10
98.093999999999994
20
34.918999999999997
10
98.093999999999994
20
22.118999999999986
10
82.593999999999994
20
22.118999999999986
10
82.593999999999994
20
34.918999999999997
0
CIRCLE
5
181
100
AcDbEntity
8
0
100
AcDbCircle
10
180.73149999999998
20
9.4689999999999976
30
0
40
3.1499999999999999
210
0
220
0
230
1
0
LWPOLYLINE
5
182
100
AcDbEntity
8
0
100
AcDbPolyline
90
4
70
1
43
0.0
10
239.11275000000003
20
37.518999999999991
10
236.51274999999998
20
37.518999999999991
10
236.51274999999998
20
32.418999999999997
10
239.11275000000003
20
32.418999999999997
0
LWPOLYLINE
5
183
100
AcDbEntity
8
0
100
AcDbPolyline
90
4
70
1
43
0.0
10
260.38874999999996
20
32.418999999999997
10
262.98875000000004
20
32.418999999999997
10
262.98875000000004
20
37.518999999999991
10
260.38874999999996
20
37.518999999999991
0
ENDSEC
0
SECTION
2
OBJECTS
0
DICTIONARY
5
C
100
AcDbDictionary
3
ACAD_GROUP
350
D
3
ACAD_MLINESTYLE
350
17
0
DICTIONARY
5
D
100
AcDbDictionary
0
DICTIONARY
5
1A
330
C
100
AcDbDictionary
0
DICTIONARY
5
17
100
AcDbDictionary
0
ENDSEC
0
EOF
