0
SECTION
2
HEADER
9
$INSUNITS
70
4
9
$ACADVER
1
AC1014
9
$HANDSEED
5
FFFF
0
ENDSEC
0
SECTION
2
TABLES
0
TABLE
2
VPORT
5
8
100
AcDbSymbolTable
0
ENDTAB
0
TABLE
2
LTYPE
5
5
100
AcDbSymbolTable
0
LTYPE
5
14
100
AcDbSymbolTableRecord
100
AcDbLinetypeTableRecord
2
BYBLOCK
70
0
0
LTYPE
5
15
100
AcDbSymbolTableRecord
100
AcDbLinetypeTableRecord
2
BYLAYER
70
0
0
ENDTAB
0
TABLE
2
LAYER
5
2
100
AcDbSymbolTable
70
2
0
LAYER
5
50
100
AcDbSymbolTableRecord
100
AcDbLayerTableRecord
2
0
70
0
6
CONTINUOUS
0
ENDTAB
0
TABLE
2
STYLE
5
3
100
AcDbSymbolTable
70
1
0
STYLE
5
11
100
AcDbSymbolTableRecord
100
AcDbTextStyleTableRecord
2
STANDARD
70
0
0
ENDTAB
0
TABLE
2
VIEW
5
6
100
AcDbSymbolTable
70
0
0
ENDTAB
0
TABLE
2
UCS
5
7
100
AcDbSymbolTable
70
0
0
ENDTAB
0
TABLE
2
APPID
5
9
100
AcDbSymbolTable
70
2
0
APPID
5
12
100
AcDbSymbolTableRecord
100
AcDbRegAppTableRecord
2
ACAD
70
0
0
ENDTAB
0
TABLE
2
DIMSTYLE
5
A
100
AcDbSymbolTable
70
1
0
ENDTAB
0
TABLE
2
BLOCK_RECORD
5
1
100
AcDbSymbolTable
70
1
0
BLOCK_RECORD
5
1F
100
AcDbSymbolTableRecord
100
AcDbBlockTableRecord
2
*MODEL_SPACE
0
BLOCK_RECORD
5
1B
100
AcDbSymbolTableRecord
100
AcDbBlockTableRecord
2
*PAPER_SPACE
0
ENDTAB
0
ENDSEC
0
SECTION
2
BLOCKS
0
BLOCK
5
20
100
AcDbEntity
100
AcDbBlockBegin
2
*MODEL_SPACE
0
ENDBLK
5
21
100
AcDbEntity
100
AcDbBlockEnd
0
BLOCK
5
1C
100
AcDbEntity
100
AcDbBlockBegin
2
*PAPER_SPACE
0
ENDBLK
5
1D
100
AcDbEntity
100
AcDbBlockEnd
0
ENDSEC
0
SECTION
2
ENTITIES
0
LWPOLYLINE
5
100
100
AcDbEntity
8
0
100
AcDbPolyline
90
8
70
1
43
0.0
10
299.08835940000006
20
5.1442582180553469
42
-0.41421356237309503
10
295.18835940000002
20
1.2442582180553472
10
6.437066000000021
20
1.2442582180553363
42
-0.41421356237309609
10
2.5370659999999901
20
5.1442582180553309
10
2.5370660000007939
20
103.39355161805565
42
-0.4142135623730962
10
6.4370660000000157
20
107.29355161805486
10
295.18835940000002
20
107.29355161805566
42
-0.41421356237309503
10
299.08835940000006
20
103.39355161805565
0
LWPOLYLINE
5
101
100
AcDbEntity
8
0
100
AcDbPolyline
90
8
70
1
43
0.0
10
37.893159400000002
20
43.188275853047394
10
37.893159400000002
20
27.248775853047377
10
45.468259400000008
20
27.248775853047377
10
45.468259400000008
20
34.719075853047315
10
45.468359400000004
20
34.719075853047315
10
45.468359400000004
20
37.517875853047336
10
45.468259400000008
20
37.517875853047329
10
45.468259400000008
20
43.188275853047394
0
LWPOLYLINE
5
102
100
AcDbEntity
8
0
100
AcDbPolyline
90
4
70
1
43
0.0
10
280.77935939999998
20
62.238275853047341
10
280.77935939999998
20
46.298875853047306
10
288.35435940000002
20
46.298875853047306
10
288.35435940000002
20
62.238275853047341
0
LWPOLYLINE
5
103
100
AcDbEntity
8
0
100
AcDbPolyline
90
4
70
1
43
0.0
10
279.25535939999997
20
47.268975853047323
10
279.25535939999997
20
61.268275853047349
10
265.2543594
20
61.268275853047349
10
265.2543594
20
47.268975853047323
0
LWPOLYLINE
5
104
100
AcDbEntity
8
0
100
AcDbPolyline
90
4
70
1
43
0.0
10
263.7303594
20
46.298875853047306
10
263.7303594
20
62.238275853047341
10
256.15535940000001
20
62.238275853047341
10
256.15535940000001
20
46.298875853047306
0
LWPOLYLINE
5
105
100
AcDbEntity
8
0
100
AcDbPolyline
90
4
70
1
43
0.0
10
157.81135939999999
20
9.1688758530473464
10
157.81135939999999
20
23.168375853047337
10
143.81235939999999
20
23.168375853047337
10
143.81235939999999
20
9.1688758530473464
0
LWPOLYLINE
5
106
100
AcDbEntity
8
0
100
AcDbPolyline
90
4
70
1
43
0.0
10
97.037359400000014
20
10.638875853047358
10
97.037359400000014
20
25.138875853047352
10
89.462159400000004
20
25.138875853047352
10
89.462159400000004
20
10.638875853047358
0
LWPOLYLINE
5
107
100
AcDbEntity
8
0
100
AcDbPolyline
90
4
70
1
43
0.0
10
153.04935940000001
20
61.268275853047349
10
139.04935939999999
20
61.268275853047349
10
139.04935939999999
20
47.268975853047323
10
153.04935940000001
20
47.268975853047323
0
LWPOLYLINE
5
108
100
AcDbEntity
8
0
100
AcDbPolyline
90
4
70
1
43
0.0
10
158.0993594
20
61.268275853047349
10
158.0993594
20
47.268975853047323
10
172.09935940000003
20
47.268975853047323
10
172.09935940000003
20
61.268275853047349
0
LWPOLYLINE
5
109
100
AcDbEntity
8
0
100
AcDbPolyline
90
4
70
1
43
0.0
10
162.8623594
20
85.368975853047417
10
176.8613594
20
85.368975853047417
10
176.8613594
20
99.369675853047397
10
162.8623594
20
99.369675853047397
0
LWPOLYLINE
5
110
100
AcDbEntity
8
0
100
AcDbPolyline
90
4
70
1
43
0.0
10
76.848959400000012
20
23.168375853047337
10
62.8496594
20
23.168375853047337
10
62.8496594
20
9.1688758530473464
10
76.848959400000012
20
9.1688758530473464
0
LWPOLYLINE
5
111
100
AcDbEntity
8
0
100
AcDbPolyline
90
4
70
1
43
0.0
10
238.77435940000001
20
9.1688758530473464
10
238.77435940000001
20
23.168375853047337
10
224.77435940000004
20
23.168375853047337
10
224.77435940000004
20
9.1688758530473464
0
LWPOLYLINE
5
112
100
AcDbEntity
8
0
100
AcDbPolyline
90
4
70
1
43
0.0
10
248.58535939999999
20
9.1688758530473464
10
262.58635939999999
20
9.1688758530473464
10
262.58635939999999
20
23.168375853047337
10
248.58535939999999
20
23.168375853047337
0
LWPOLYLINE
5
113
100
AcDbEntity
8
0
100
AcDbPolyline
90
4
70
1
43
0.0
10
286.39935939999998
20
9.1688758530473464
10
286.39935939999998
20
23.168375853047337
10
272.39935939999998
20
23.168375853047337
10
272.39935939999998
20
9.1688758530473464
0
LWPOLYLINE
5
114
100
AcDbEntity
8
0
100
AcDbPolyline
90
4
70
1
43
0.0
10
29.224059400000005
20
9.1688758530473464
10
29.224059400000005
20
23.168375853047337
10
15.224559400000002
20
23.168375853047337
10
15.224559400000002
20
9.1688758530473464
0
LWPOLYLINE
5
115
100
AcDbEntity
8
0
100
AcDbPolyline
90
4
70
1
43
0.0
10
29.512059399999998
20
85.368975853047417
10
43.511459400000007
20
85.368975853047417
10
43.511459400000007
20
99.369675853047397
10
29.512059399999998
20
99.369675853047397
0
LWPOLYLINE
5
116
100
AcDbEntity
8
0
100
AcDbPolyline
90
4
70
1
43
0.0
10
200.9623594
20
99.369675853047397
10
200.9623594
20
85.368975853047417
10
214.96135940000002
20
85.368975853047417
10
214.96135940000002
20
99.369675853047397
0
LWPOLYLINE
5
117
100
AcDbEntity
8
0
100
AcDbPolyline
90
12
70
1
43
0.0
10
258.11235940000006
20
85.368975853047303
10
261.08735940000003
20
85.368975853047303
10
261.08735940000003
20
84.398875853047429
10
264.38735940000004
20
84.398875853047429
10
264.38735940000004
20
85.368975853047303
10
284.88735939999998
20
85.368975853047417
10
284.88735939999998
20
84.398875853047429
10
288.18835940000002
20
84.398875853047429
10
288.18835940000002
20
85.368975853047417
10
291.16135939999998
20
85.368975853047417
10
291.16135939999998
20
99.369675853047298
10
258.11235940000006
20
99.369675853047298
0
LWPOLYLINE
5
118
100
AcDbEntity
8
0
100
AcDbPolyline
90
4
70
1
43
0.0
10
12.8419594
20
47.268975853047309
10
31.605259400000001
20
47.268975853047323
10
31.605259400000001
20
61.268275853047349
10
12.8419594
20
61.268275853047342
0
LWPOLYLINE
5
119
100
AcDbEntity
8
0
100
AcDbPolyline
90
4
70
1
43
0.0
10
234.01135940000003
20
99.369675853047397
10
220.01235940000001
20
99.369675853047397
10
220.01235940000001
20
85.368975853047417
10
234.01135940000003
20
85.368975853047417
0
LWPOLYLINE
5
120
100
AcDbEntity
8
0
100
AcDbPolyline
90
4
70
1
43
0.0
10
205.72435940000003
20
28.218875853047372
10
219.7243594
20
28.218875853047372
10
219.7243594
20
42.218275853047388
10
205.72435940000003
20
42.218275853047388
0
LWPOLYLINE
5
121
100
AcDbEntity
8
0
100
AcDbPolyline
90
4
70
1
43
0.0
10
119.71135940000002
20
85.368975853047417
10
119.71135940000002
20
99.369675853047397
10
105.71035940000002
20
99.369675853047397
10
105.71035940000002
20
85.368975853047417
0
LWPOLYLINE
5
122
100
AcDbEntity
8
0
100
AcDbPolyline
90
4
70
1
43
0.0
10
86.662159399999993
20
85.368975853047417
10
100.6614594
20
85.368975853047417
10
100.6614594
20
99.369675853047397
10
86.662159399999993
20
99.369675853047397
0
LWPOLYLINE
5
123
100
AcDbEntity
8
0
100
AcDbPolyline
90
4
70
1
43
0.0
10
286.39935939999998
20
66.318975853047363
10
286.39935939999998
20
80.318275853047396
10
272.39935939999998
20
80.318275853047396
10
272.39935939999998
20
66.318975853047363
0
LWPOLYLINE
5
124
100
AcDbEntity
8
0
100
AcDbPolyline
90
4
70
1
43
0.0
10
110.4743594
20
28.218875853047372
10
124.4743594
20
28.218875853047372
10
124.4743594
20
42.218275853047388
10
110.4743594
20
42.218275853047388
0
LWPOLYLINE
5
125
100
AcDbEntity
8
0
100
AcDbPolyline
90
4
70
1
43
0.0
10
210.19935939999999
20
61.268275853047349
10
196.19935940000002
20
61.268275853047349
10
196.19935940000002
20
47.268975853047323
10
210.19935939999999
20
47.268975853047323
0
LWPOLYLINE
5
126
100
AcDbEntity
8
0
100
AcDbPolyline
90
4
70
1
43
0.0
10
129.2363594
20
66.318975853047363
10
129.2363594
20
80.318275853047396
10
115.23735940000002
20
80.318275853047396
10
115.23735940000002
20
66.318975853047363
0
LWPOLYLINE
5
127
100
AcDbEntity
8
0
100
AcDbPolyline
90
4
70
1
43
0.0
10
181.91235940000001
20
85.368975853047417
10
195.91135940000001
20
85.368975853047417
10
195.91135940000001
20
99.369675853047397
10
181.91235940000001
20
99.369675853047397
0
LWPOLYLINE
5
128
100
AcDbEntity
8
0
100
AcDbPolyline
90
4
70
1
43
0.0
10
29.224059400000005
20
80.318275853047396
10
15.224559400000002
20
80.318275853047396
10
15.224559400000002
20
66.318975853047363
10
29.224059400000005
20
66.318975853047363
0
LWPOLYLINE
5
129
100
AcDbEntity
8
0
100
AcDbPolyline
90
4
70
1
43
0.0
10
229.2493594
20
47.268975853047323
10
229.2493594
20
61.268275853047349
10
215.24935940000003
20
61.268275853047349
10
215.24935940000003
20
47.268975853047323
0
LWPOLYLINE
5
130
100
AcDbEntity
8
0
100
AcDbPolyline
90
4
70
1
43
0.0
10
53.324659400000002
20
28.218875853047372
10
67.323959400000007
20
28.218875853047372
10
67.323959400000007
20
42.218275853047388
10
53.324659400000002
20
42.218275853047388
0
LWPOLYLINE
5
131
100
AcDbEntity
8
0
100
AcDbPolyline
90
4
70
1
43
0.0
10
77.137159400000002
20
80.318275853047396
10
77.137159400000002
20
66.318975853047363
10
91.136459400000007
20
66.318975853047363
10
91.136459400000007
20
80.318275853047396
0
LWPOLYLINE
5
132
100
AcDbEntity
8
0
100
AcDbPolyline
90
4
70
1
43
0.0
10
53.036459399999998
20
23.168375853047337
10
39.0371594
20
23.168375853047337
10
39.0371594
20
9.1688758530473464
10
53.036459399999998
20
9.1688758530473464
0
LWPOLYLINE
5
133
100
AcDbEntity
8
0
100
AcDbPolyline
90
4
70
1
43
0.0
10
119.9993594
20
47.268975853047323
10
133.9993594
20
47.268975853047323
10
133.9993594
20
61.268275853047349
10
119.9993594
20
61.268275853047349
0
LWPOLYLINE
5
134
100
AcDbEntity
8
0
100
AcDbPolyline
90
4
70
1
43
0.0
10
81.899659400000004
20
47.268975853047323
10
95.898959399999995
20
47.268975853047323
10
95.898959399999995
20
61.268275853047349
10
81.899659400000004
20
61.268275853047349
0
LWPOLYLINE
5
135
100
AcDbEntity
8
0
100
AcDbPolyline
90
4
70
1
43
0.0
10
186.67435940000001
20
28.218875853047372
10
200.67435939999999
20
28.218875853047372
10
200.67435939999999
20
42.218275853047388
10
186.67435940000001
20
42.218275853047388
0
LWPOLYLINE
5
136
100
AcDbEntity
8
0
100
AcDbPolyline
90
4
70
1
43
0.0
10
48.562159399999999
20
85.368975853047417
10
62.561459399999997
20
85.368975853047417
10
62.561459399999997
20
99.369675853047397
10
48.562159399999999
20
99.369675853047397
0
LWPOLYLINE
5
137
100
AcDbEntity
8
0
100
AcDbPolyline
90
4
70
1
43
0.0
10
114.94935940000002
20
61.268275853047349
10
100.94935940000001
20
61.268275853047349
10
100.94935940000001
20
47.268975853047323
10
114.94935940000002
20
47.268975853047323
0
LWPOLYLINE
5
138
100
AcDbEntity
8
0
100
AcDbPolyline
90
4
70
1
43
0.0
10
191.14935940000004
20
61.268275853047349
10
177.14935940000001
20
61.268275853047349
10
177.14935940000001
20
47.268975853047323
10
191.14935940000004
20
47.268975853047323
0
LWPOLYLINE
5
139
100
AcDbEntity
8
0
100
AcDbPolyline
90
4
70
1
43
0.0
10
10.460679400000002
20
85.368975853047417
10
24.461559400000002
20
85.368975853047417
10
24.461559400000002
20
99.369675853047397
10
10.460679400000002
20
99.369675853047397
0
LWPOLYLINE
5
140
100
AcDbEntity
8
0
100
AcDbPolyline
90
4
70
1
43
0.0
10
167.6243594
20
42.218275853047388
10
167.6243594
20
28.218875853047372
10
181.6243594
20
28.218875853047372
10
181.6243594
20
42.218275853047388
0
LWPOLYLINE
5
141
100
AcDbEntity
8
0
100
AcDbPolyline
90
4
70
1
43
0.0
10
238.77435940000001
20
42.218275853047388
10
224.77435940000004
20
42.218275853047388
10
224.77435940000004
20
28.218875853047372
10
238.77435940000001
20
28.218875853047372
0
LWPOLYLINE
5
142
100
AcDbEntity
8
0
100
AcDbPolyline
90
4
70
1
43
0.0
10
76.848959400000012
20
47.268975853047323
10
76.848959400000012
20
61.268275853047349
10
62.8496594
20
61.268275853047349
10
62.8496594
20
47.268975853047323
0
LWPOLYLINE
5
143
100
AcDbEntity
8
0
100
AcDbPolyline
90
4
70
1
43
0.0
10
105.42435940000001
20
28.218875853047372
10
105.42435940000001
20
42.218275853047388
10
91.424659399999996
20
42.218275853047388
10
91.424659399999996
20
28.218875853047372
0
LWPOLYLINE
5
144
100
AcDbEntity
8
0
100
AcDbPolyline
90
4
70
1
43
0.0
10
43.79965940000001
20
61.268275853047349
10
43.79965940000001
20
47.268975853047323
10
57.798959400000001
20
47.268975853047323
10
57.798959400000001
20
61.268275853047349
0
LWPOLYLINE
5
145
100
AcDbEntity
8
0
100
AcDbPolyline
90
4
70
1
43
0.0
10
58.087159399999997
20
66.318975853047363
10
72.086459399999995
20
66.318975853047363
10
72.086459399999995
20
80.318275853047396
10
58.087159399999997
20
80.318275853047396
0
LWPOLYLINE
5
146
100
AcDbEntity
8
0
100
AcDbPolyline
90
4
70
1
43
0.0
10
72.374659399999999
20
28.218875853047372
10
86.373959400000018
20
28.218875853047372
10
86.373959400000018
20
42.218275853047388
10
72.374659399999999
20
42.218275853047388
0
LWPOLYLINE
5
147
100
AcDbEntity
8
0
100
AcDbPolyline
90
4
70
1
43
0.0
10
53.036459399999998
20
66.318975853047363
10
53.036459399999998
20
80.318275853047396
10
39.0371594
20
80.318275853047396
10
39.0371594
20
66.318975853047363
0
LWPOLYLINE
5
148
100
AcDbEntity
8
0
100
AcDbPolyline
90
4
70
1
43
0.0
10
253.06135940000001
20
85.368975853047417
10
253.06135940000001
20
99.369675853047397
10
239.06235940000002
20
99.369675853047397
10
239.06235940000002
20
85.368975853047417
0
LWPOLYLINE
5
149
100
AcDbEntity
8
0
100
AcDbPolyline
90
4
70
1
43
0.0
10
205.43635940000001
20
80.318275853047396
10
191.43735939999999
20
80.318275853047396
10
191.43735939999999
20
66.318975853047363
10
205.43635940000001
20
66.318975853047363
0
LWPOLYLINE
5
150
100
AcDbEntity
8
0
100
AcDbPolyline
90
4
70
1
43
0.0
10
143.52435940000001
20
28.218875853047372
10
143.52435940000001
20
42.218275853047388
10
129.52435940000001
20
42.218275853047388
10
129.52435940000001
20
28.218875853047372
0
LWPOLYLINE
5
151
100
AcDbEntity
8
0
100
AcDbPolyline
90
4
70
1
43
0.0
10
224.48635940000003
20
80.318275853047396
10
210.4873594
20
80.318275853047396
10
210.4873594
20
66.318975853047363
10
224.48635940000003
20
66.318975853047363
0
LWPOLYLINE
5
152
100
AcDbEntity
8
0
100
AcDbPolyline
90
4
70
1
43
0.0
10
186.3863594
20
80.318275853047396
10
172.38735940000001
20
80.318275853047396
10
172.38735940000001
20
66.318975853047363
10
186.3863594
20
66.318975853047363
0
LWPOLYLINE
5
153
100
AcDbEntity
8
0
100
AcDbPolyline
90
4
70
1
43
0.0
10
248.29935939999999
20
47.268975853047323
10
248.29935939999999
20
61.268275853047349
10
234.29935940000001
20
61.268275853047349
10
234.29935940000001
20
47.268975853047323
0
LWPOLYLINE
5
154
100
AcDbEntity
8
0
100
AcDbPolyline
90
4
70
1
43
0.0
10
229.53735940000001
20
80.318275853047396
10
229.53735940000001
20
66.318975853047363
10
243.53635940000004
20
66.318975853047363
10
243.53635940000004
20
80.318275853047396
0
LWPOLYLINE
5
155
100
AcDbEntity
8
0
100
AcDbPolyline
90
4
70
1
43
0.0
10
134.28735940000001
20
80.318275853047396
10
134.28735940000001
20
66.318975853047363
10
148.28635940000001
20
66.318975853047363
10
148.28635940000001
20
80.318275853047396
0
LWPOLYLINE
5
156
100
AcDbEntity
8
0
100
AcDbPolyline
90
4
70
1
43
0.0
10
67.612159399999996
20
85.368975853047417
10
81.611459400000001
20
85.368975853047417
10
81.611459400000001
20
99.369675853047397
10
67.612159399999996
20
99.369675853047397
0
LWPOLYLINE
5
157
100
AcDbEntity
8
0
100
AcDbPolyline
90
4
70
1
43
0.0
10
96.187159400000013
20
66.318975853047363
10
110.18635940000001
20
66.318975853047363
10
110.18635940000001
20
80.318275853047396
10
96.187159400000013
20
80.318275853047396
0
LWPOLYLINE
5
158
100
AcDbEntity
8
0
100
AcDbPolyline
90
4
70
1
43
0.0
10
143.81235939999999
20
85.368975853047417
10
157.81135939999999
20
85.368975853047417
10
157.81135939999999
20
99.369675853047397
10
143.81235939999999
20
99.369675853047397
0
LWPOLYLINE
5
159
100
AcDbEntity
8
0
100
AcDbPolyline
90
4
70
1
43
0.0
10
148.57435939999999
20
28.218875853047372
10
162.57435939999999
20
28.218875853047372
10
162.57435939999999
20
42.218275853047388
10
148.57435939999999
20
42.218275853047388
0
LWPOLYLINE
5
160
100
AcDbEntity
8
0
100
AcDbPolyline
90
4
70
1
43
0.0
10
167.33635939999999
20
80.318275853047396
10
153.3373594
20
80.318275853047396
10
153.3373594
20
66.318975853047363
10
167.33635939999999
20
66.318975853047363
0
LWPOLYLINE
5
161
100
AcDbEntity
8
0
100
AcDbPolyline
90
4
70
1
43
0.0
10
138.7613594
20
99.369675853047397
10
124.76035940000001
20
99.369675853047397
10
124.76035940000001
20
85.368975853047417
10
138.7613594
20
85.368975853047417
0
LWPOLYLINE
5
162
100
AcDbEntity
8
0
100
AcDbPolyline
90
4
70
1
43
0.0
10
262.58635939999999
20
80.318275853047396
10
248.58735940000003
20
80.318275853047396
10
248.58735940000003
20
66.318975853047363
10
262.58635939999999
20
66.318975853047363
0
LWPOLYLINE
5
163
100
AcDbEntity
8
0
100
AcDbPolyline
90
16
70
1
43
0.0
10
277.16235940000001
20
42.218275853047388
10
250.9681094
20
42.218275853047388
10
250.9681094
20
28.218875853047372
10
253.94235940000002
20
28.218875853047372
10
253.94235940000002
20
27.248775853047377
10
257.2423594
20
27.248775853047377
10
257.2423594
20
28.218875853047372
10
274.4923594
20
28.218875853047372
10
274.4923594
20
28.218975853047368
10
277.74335940000003
20
28.218975853047368
10
277.74335940000003
20
27.248775853047377
10
281.04235940000001
20
27.248775853047377
10
281.04235940000001
20
28.218975853047368
10
291.16135939999998
20
28.218975853047368
10
291.16135939999998
20
42.219675853047363
10
277.16235940000001
20
42.219675853047363
0
LWPOLYLINE
5
164
100
AcDbEntity
8
0
100
AcDbPolyline
90
10
70
1
43
0.0
10
204.58635939999999
20
25.138875853047352
10
204.58635939999999
20
13.869375853047377
10
204.5873594
20
13.869375853047377
10
204.5873594
20
10.638875853047358
10
212.16155939999999
20
10.638875853047358
10
212.16155939999999
20
15.66907585304736
10
212.16335939999999
20
15.669075853047364
10
212.16335939999999
20
18.467875853047385
10
212.16155939999999
20
18.467875853047385
10
212.16155939999999
20
25.138875853047352
0
LWPOLYLINE
5
165
100
AcDbEntity
8
0
100
AcDbPolyline
90
4
70
1
43
0.0
10
20.842859400000002
20
27.248775853047377
10
20.842859400000002
20
43.188275853047394
10
13.267759400000001
20
43.188275853047394
10
13.267759400000001
20
27.248775853047377
0
LWPOLYLINE
5
166
100
AcDbEntity
8
0
100
AcDbPolyline
90
4
70
1
43
0.0
10
36.367759399999997
20
28.218875853047372
10
36.367759399999997
20
42.218275853047388
10
22.368259399999999
20
42.218275853047388
10
22.368259399999999
20
28.218875853047372
0
CIRCLE
5
167
100
AcDbEntity
8
0
100
AcDbCircle
10
11.437066
20
3.8942582180553416
30
3.4416913763379853e-14
40
2
0
CIRCLE
5
168
100
AcDbEntity
8
0
100
AcDbCircle
10
290.18835969999998
20
104.64317585304769
30
-3.1086244689504383e-14
40
1.9999999999999902
0
CIRCLE
5
169
100
AcDbEntity
8
0
100
AcDbCircle
10
11.4370657
20
104.64317585304769
30
-3.1086244689504383e-14
40
2
0
CIRCLE
5
170
100
AcDbEntity
8
0
100
AcDbCircle
10
290.18835940000002
20
3.8942582180553416
30
3.4416913763379853e-14
40
1.9999999999999902
0
CIRCLE
5
171
100
AcDbEntity
8
0
100
AcDbCircle
10
104.12210600000002
20
3.8938824530473495
30
2.55351295663786e-14
40
2.0000000000000102
0
CIRCLE
5
172
100
AcDbEntity
8
0
100
AcDbCircle
10
197.50331970000002
20
104.64317585304769
30
-3.1086244689504383e-14
40
1.9999999999999902
0
CIRCLE
5
173
100
AcDbEntity
8
0
100
AcDbCircle
10
104.12210570000001
20
104.64317585304769
30
-3.1086244689504383e-14
40
2.0000000000000102
0
CIRCLE
5
174
100
AcDbEntity
8
0
100
AcDbCircle
10
197.50331940000001
20
3.8938824530473495
30
2.55351295663786e-14
40
1.9999999999999902
0
ENDSEC
0
SECTION
2
OBJECTS
0
DICTIONARY
5
C
100
AcDbDictionary
3
ACAD_GROUP
350
D
3
ACAD_MLINESTYLE
350
17
0
DICTIONARY
5
D
100
AcDbDictionary
0
DICTIONARY
5
1A
330
C
100
AcDbDictionary
0
DICTIONARY
5
17
100
AcDbDictionary
0
ENDSEC
0
EOF
